<svg width="28" height="29" viewBox="0 0 28 29" fill="none" xmlns="http://www.w3.org/2000/svg">
<path d="M25.228 0.540039H3.05203C1.52743 0.540039 0.280029 1.78744 0.280029 3.31204V25.488C0.280029 27.0126 1.52743 28.26 3.05203 28.26H25.228C26.7526 28.26 28 27.0126 28 25.488V3.31204C28 1.78744 26.7526 0.540039 25.228 0.540039ZM14.14 8.85604C17.1892 8.85604 19.684 11.3508 19.684 14.4C19.684 17.4492 17.1892 19.944 14.14 19.944C11.0908 19.944 8.59603 17.4492 8.59603 14.4C8.59603 11.3508 11.0908 8.85604 14.14 8.85604ZM3.74503 25.488C3.32923 25.488 3.05203 25.2108 3.05203 24.795V13.014H5.96263C5.82403 13.4298 5.82403 13.9842 5.82403 14.4C5.82403 18.9738 9.56623 22.716 14.14 22.716C18.7138 22.716 22.456 18.9738 22.456 14.4C22.456 13.9842 22.456 13.4298 22.3174 13.014H25.228V24.795C25.228 25.2108 24.9508 25.488 24.535 25.488H3.74503ZM25.228 6.77704C25.228 7.19284 24.9508 7.47004 24.535 7.47004H21.763C21.3472 7.47004 21.07 7.19284 21.07 6.77704V4.00504C21.07 3.58924 21.3472 3.31204 21.763 3.31204H24.535C24.9508 3.31204 25.228 3.58924 25.228 4.00504V6.77704Z" fill="#BCBCBC"/>
</svg>
