<svg width="16" height="31" viewBox="0 0 16 31" fill="none" xmlns="http://www.w3.org/2000/svg">
<path d="M14.8201 0.00640846L11.1263 0C6.97651 0 4.29472 2.97513 4.29472 7.57992V11.0748H0.580808C0.259882 11.0748 0 11.3561 0 11.7031V16.7668C0 17.1138 0.260178 17.3948 0.580808 17.3948H4.29472V30.172C4.29472 30.519 4.5546 30.8 4.87553 30.8H9.72112C10.042 30.8 10.3019 30.5187 10.3019 30.172V17.3948H14.6444C14.9653 17.3948 15.2252 17.1138 15.2252 16.7668L15.2269 11.7031C15.2269 11.5365 15.1656 11.3769 15.0568 11.259C14.9481 11.1411 14.7999 11.0748 14.6458 11.0748H10.3019V8.11214C10.3019 6.68818 10.6157 5.96531 12.3312 5.96531L14.8195 5.96435C15.1401 5.96435 15.4 5.68302 15.4 5.33632V0.634437C15.4 0.28806 15.1404 0.0070493 14.8201 0.00640846Z" fill="#BCBCBC"/>
</svg>
