<svg width="72" height="72" viewBox="0 0 72 72" fill="none" xmlns="http://www.w3.org/2000/svg">
<circle cx="36" cy="36" r="36" fill="#6204F6"/>
<path d="M8.94141 35.75C8.94141 33.6992 9.83008 32.5439 11.4229 32.5439C12.7354 32.5439 13.6377 33.3984 13.6719 34.6426H14.8477V34.6221C14.8477 32.79 13.4053 31.4707 11.416 31.4707C9.10547 31.4707 7.75195 33.0703 7.75195 35.75V36.9736C7.75195 39.626 9.10547 41.1982 11.416 41.1982C13.3916 41.1982 14.8477 39.9336 14.8477 38.2109V38.1836H13.6719C13.6377 39.3389 12.7354 40.125 11.4229 40.125C9.83008 40.125 8.94141 38.9902 8.94141 36.9736V35.75ZM19.3799 33.6992C17.3701 33.6992 16.29 35.1553 16.29 37.0762V37.7188C16.29 39.667 17.3633 41.1162 19.3799 41.1162C21.3965 41.1162 22.4561 39.667 22.4561 37.7188V37.0762C22.4561 35.1553 21.3896 33.6992 19.3799 33.6992ZM19.3799 34.7041C20.6104 34.7041 21.2803 35.6475 21.2803 37.1172V37.6777C21.2803 39.1475 20.6104 40.0977 19.3799 40.0977C18.1426 40.0977 17.4658 39.1406 17.4658 37.6777V37.1172C17.4658 35.6475 18.1426 34.7041 19.3799 34.7041ZM24.2744 41H25.4502V36.4473C25.4502 35.3604 26.1406 34.7588 27.0225 34.7588C28 34.7588 28.5879 35.3604 28.5879 36.4609V41H29.7568V36.4609C29.7568 35.4629 30.3242 34.7588 31.3428 34.7588C32.3682 34.7588 32.8945 35.4355 32.8945 36.3516V41H34.0635V36.1123C34.0635 34.6357 33.168 33.6992 31.6504 33.6992C30.4814 33.6992 29.7227 34.2393 29.4492 34.8545H29.3945C29.1143 34.1504 28.4443 33.6992 27.3232 33.6992C26.373 33.6992 25.7373 34.2051 25.5049 34.6973H25.4434V33.8154H24.2744V41ZM39.3818 41.1162C41.0703 41.1162 42.2461 39.8379 42.2461 37.7393V37.0762C42.2461 34.9502 41.0498 33.7061 39.4297 33.7061C38.4658 33.7061 37.7275 34.1709 37.3105 34.8477H37.2764V33.8154H36.1484V43.3857H37.3242V40.043H37.3584C37.7617 40.6787 38.4658 41.1162 39.3818 41.1162ZM39.2656 40.0908C38.042 40.0908 37.3037 39.1201 37.3037 37.6504V37.1104C37.3037 35.6816 38.0352 34.7178 39.2314 34.7178C40.3936 34.7178 41.0635 35.6064 41.0635 37.1172V37.6504C41.0635 39.2295 40.3389 40.0908 39.2656 40.0908ZM48.0703 40.1045H48.1045V41H49.2324V36.0439C49.2324 34.5332 48.1182 33.6992 46.5869 33.6992C44.8506 33.6992 43.9961 34.6152 43.9209 35.873H45.0283C45.0967 35.1553 45.623 34.6836 46.5459 34.6836C47.5166 34.6836 48.0635 35.2031 48.0635 36.1465V36.8779H46.1699C44.5225 36.8848 43.6475 37.6777 43.6475 38.9355C43.6475 40.2549 44.6045 41.1162 45.9922 41.1162C47.0518 41.1162 47.708 40.6855 48.0703 40.1045ZM46.3066 40.1387C45.5547 40.1387 44.8506 39.7422 44.8506 38.8945C44.8506 38.2451 45.2744 37.7803 46.2588 37.7803H48.0635V38.6143C48.0635 39.5098 47.3115 40.1387 46.3066 40.1387ZM51.2627 41H52.4385V36.625C52.4385 35.6406 52.9717 34.7656 54.209 34.7656C55.2549 34.7656 55.9658 35.3809 55.9658 36.5908V41H57.1416V36.3926C57.1416 34.6426 56.041 33.6992 54.5645 33.6992C53.3955 33.6992 52.7324 34.3076 52.4658 34.7656H52.4316V33.8154H51.2627V41ZM64.5996 33.8154H63.3486L61.4004 39.6943H61.3594L59.418 33.8154H58.1123L60.7578 41.1025L60.6484 41.4922C60.4434 42.251 60.0537 42.5312 59.2334 42.5312C59.0557 42.5312 58.8301 42.5176 58.7139 42.5039V43.4609C58.9121 43.502 59.1582 43.5225 59.377 43.5225C60.5869 43.5225 61.291 43.0576 61.8516 41.5332L62.0361 41.0342C62.043 41.0273 64.5312 34.0479 64.5996 33.8154Z" fill="white"/>
</svg>
